<?xml version="1.0" standalone="no"?>
<!DOCTYPE svg PUBLIC "-//W3C//DTD SVG 20010904//EN"
 "http://www.w3.org/TR/2001/REC-SVG-20010904/DTD/svg10.dtd">
<svg version="1.0" xmlns="http://www.w3.org/2000/svg"
 width="700.000000pt" height="700.000000pt" viewBox="0 0 700.000000 700.000000"
 preserveAspectRatio="xMidYMid meet">
<metadata>
Created by potrace 1.14, written by Peter Selinger 2001-2017
</metadata>
<g transform="translate(0.000000,700.000000) scale(0.100000,-0.100000)"
fill="#000000" stroke="none">
<path d="M0 3500 l0 -3500 3500 0 3500 0 0 3500 0 3500 -3500 0 -3500 0 0
-3500z m2160 600 c18 -18 20 -33 20 -128 0 -81 -4 -113 -16 -130 l-15 -22
-589 0 c-522 0 -590 2 -604 16 -24 23 -23 240 1 266 15 17 47 18 600 18 570 0
583 0 603 -20z m837 -219 c59 -26 96 -61 91 -88 -5 -30 -48 -27 -99 7 -120 79
-270 50 -351 -68 -121 -175 -73 -462 92 -550 38 -20 56 -23 112 -20 55 3 75 9
110 34 52 36 98 108 105 165 6 41 5 42 -18 35 -13 -4 -54 -10 -92 -13 -142
-12 -224 63 -152 141 32 35 65 46 133 46 60 0 131 -26 168 -61 20 -19 21 -19
67 11 54 34 63 36 70 16 7 -19 -24 -59 -67 -85 -30 -19 -34 -26 -38 -79 -11
-115 -96 -232 -193 -265 -61 -21 -148 -22 -209 -1 -101 35 -199 161 -227 292
-15 76 -6 203 20 272 39 103 136 202 225 230 54 17 195 6 253 -19z m397 13
c13 -13 16 -45 16 -194 l0 -179 54 54 c44 44 61 55 99 60 87 13 149 -21 194
-108 24 -45 27 -64 27 -142 1 -74 -3 -100 -23 -142 -25 -56 -84 -117 -129
-134 -50 -19 -129 -13 -177 15 -42 23 -45 23 -45 6 0 -11 -9 -24 -20 -30 -15
-8 -24 -6 -40 10 -23 23 -24 36 -9 195 9 88 9 179 2 345 -7 139 -7 232 -2 243
12 21 33 22 53 1z m2596 6 c30 -16 33 -66 15 -262 -18 -190 -16 -390 3 -440 6
-14 20 -29 31 -33 42 -13 18 -65 -30 -65 -34 0 -47 16 -62 79 -6 28 -14 51
-17 51 -3 -1 -17 -18 -32 -40 -43 -62 -96 -91 -162 -91 -197 0 -280 293 -131
459 58 64 113 87 191 79 30 -3 71 -15 90 -26 19 -12 37 -21 39 -21 2 0 5 68 7
150 2 121 6 153 18 160 19 12 18 12 40 0z m-3829 -237 c11 -13 15 -87 17 -362
2 -190 0 -356 -3 -368 -13 -55 13 -53 -620 -53 l-584 0 -15 22 c-14 19 -16 73
-16 382 0 320 2 361 17 378 15 17 47 18 603 18 534 0 589 -2 601 -17z m2089
-43 c151 -77 187 -317 67 -447 -98 -107 -238 -112 -339 -12 -101 101 -106 287
-11 398 73 86 185 110 283 61z m576 -5 c27 -14 50 -25 51 -25 1 0 3 10 5 23 3
24 33 33 58 17 17 -11 18 -59 6 -245 -10 -141 1 -199 40 -217 27 -12 29 -20
14 -49 -12 -22 -74 -27 -87 -6 -4 6 -12 36 -18 65 l-11 53 -31 -45 c-60 -85
-178 -114 -253 -62 -87 59 -126 226 -81 346 55 147 183 208 307 145z m374 -1
c6 -14 10 -44 10 -67 l0 -41 28 45 c16 24 41 53 57 63 68 44 165 24 165 -35 0
-41 -24 -48 -72 -20 -30 17 -42 19 -58 11 -27 -15 -64 -66 -94 -130 -23 -50
-26 -67 -26 -182 0 -69 -3 -133 -6 -142 -4 -9 -18 -16 -34 -16 -16 0 -30 7
-34 16 -9 24 -7 114 5 199 7 56 7 107 -1 187 -9 84 -9 112 0 123 19 23 49 18
60 -11z"/>
<path d="M2874 3500 c-93 -37 29 -80 139 -49 48 13 37 32 -28 48 -51 13 -82
13 -111 1z"/>
<path d="M3530 3562 c-19 -10 -53 -45 -75 -76 -39 -57 -40 -60 -43 -158 -3
-85 -1 -102 15 -120 45 -51 146 -64 204 -25 51 33 89 116 89 191 0 79 -15 130
-48 167 -35 40 -93 48 -142 21z"/>
<path d="M5715 3565 c-45 -23 -91 -80 -105 -131 -26 -91 12 -229 71 -259 61
-32 138 -12 182 47 54 72 67 112 67 207 0 86 -1 90 -27 109 -61 42 -136 53
-188 27z"/>
<path d="M4064 3561 c-63 -39 -95 -105 -95 -199 0 -188 179 -281 295 -152 91
101 67 298 -44 355 -41 21 -118 19 -156 -4z"/>
<path d="M4670 3559 c-67 -42 -99 -106 -100 -199 0 -131 42 -200 122 -200 51
0 95 24 132 72 44 58 56 101 56 196 l0 89 -40 28 c-55 38 -123 44 -170 14z"/>
</g>
</svg>
